#!OML:ASF H:\Terrain\Patient Classification 1\Walking\liu\liu.ASF
:FULLY-SPECIFIED
:DEGREES
301
root 9.28753 17.4021 28.7993 5.71918 -2.6401 -5.93454
lowerback -5.47199 1.49339 2.93911
upperback -1.1878 1.74378 3.71272
thorax 1.81585 0.878551 2.29682
lowerneck -22.8089 -2.80455 -11.2497
upperneck 29.0935 -2.79387 9.26921
head 14.0479 -1.17036 5.1862
rclavicle -1.71452e-015 2.46493e-014
rhumerus -28.5661 22.5874 -86.1482
rradius 41.1523
rwrist -21.5647
rhand -28.2068 -27.4244
rfingers 7.12502
rthumb -1.58563 -57.3983
lclavicle -1.71452e-015 2.46493e-014
lhumerus -38.6116 3.51501 84.3108
lradius 13.972
lwrist -16.5225
lhand -10.8237 -23.1576
lfingers 7.12502
lthumb 15.1903 6.26482
rfemur -1.35815 -1.15619 33.2385
rtibia 17.0637
rfoot -12.1932 8.14048
rtoes -10.9671
lfemur -38.3565 8.2086 -16.4507
ltibia 40.7748
lfoot -11.5559 11.1782
ltoes -5.87938
302
root 9.30855 17.4061 28.9732 5.93249 -3.03417 -5.66498
lowerback -5.99711 1.6046 2.92511
upperback -0.739539 1.8455 3.56466
thorax 2.57468 0.93313 2.1865
lowerneck -23.2804 -2.77752 -11.0813
upperneck 28.6704 -2.6508 8.99568
head 13.9393 -1.11052 5.0508
rclavicle -5.2181e-016 9.93923e-015
rhumerus -27.0491 22.9201 -85.4917
rradius 42.5158
rwrist -22.0569
rhand -28.232 -28.3161
rfingers 7.12502
rthumb -1.61001 -58.2897
lclavicle -5.2181e-016 9.93923e-015
lhumerus -38.8792 7.11124 81.6551
lradius 12.7481
lwrist -20.8134
lhand -10.9069 -23.265
lfingers 7.12502
lthumb 15.1101 6.16343
rfemur -0.631817 -1.64182 32.6449
rtibia 16.4742
rfoot -11.7414 9.0064
rtoes -10.5995
lfemur -38.3722 8.09964 -16.8899
ltibia 37.0523
lfoot -11.6694 10.8642
ltoes -7.16917
303
root 9.31792 17.4037 29.1521 6.15013 -3.44263 -6.14558
lowerback -5.72658 1.70035 3.42176
upperback -1.01583 1.96655 3.70541
thorax 2.14795 0.99391 2.04818
lowerneck -22.9175 -2.65942 -11.1365
upperneck 28.6399 -2.50231 9.01014
head 13.8298 -1.05558 5.08683
rclavicle -5.92627e-015 2.74323e-014
rhumerus -26.8343 23.3407 -85.3877
rradius 43.647
rwrist -22.4644
rhand -29.0119 -27.2806
rfingers 7.12502
rthumb -2.36318 -57.2473
lclavicle -5.92627e-015 2.74323e-014
lhumerus -40.6822 9.65831 79.2345
lradius 12.0404
lwrist -23.9113
lhand -10.2564 -22.7656
lfingers 7.12502
lthumb 15.7367 6.61458
rfemur -0.0135038 -1.84561 32.9241
rtibia 16.2012
rfoot -11.5618 9.71629
rtoes -10.5355
lfemur -38.4107 8.16226 -16.4358
ltibia 33.2803
lfoot -11.395 10.4544
ltoes -10.335
304
root 9.32304 17.3885 29.3418 6.16945 -3.95955 -6.33191
lowerback -4.82678 1.82285 3.57213
upperback -1.69735 2.21218 3.7555
thorax 0.943898 1.10619 1.98423
lowerneck -22.0429 -2.65311 -11.484
upperneck 28.7591 -2.57673 9.33048
head 13.7146 -1.10036 5.2625
rclavicle 5.10325e-014 1.47101e-014
rhumerus -27.4911 23.7208 -85.5911
rradius 44.7333
rwrist -22.8245
rhand -30.3181 -27.2048
rfingers 7.12502
rthumb -3.62465 -57.1537
lclavicle 5.10325e-014 1.47101e-014
lhumerus -43.3772 11.3556 76.777
lradius 11.5784
lwrist -26.7267
lhand -9.79138 -22.2923
lfingers 7.12502
lthumb 16.1845 7.05206
rfemur 0.907182 -1.88948 32.8952
rtibia 15.904
rfoot -11.5199 10.2994
rtoes -11.0376
lfemur -38.1551 8.23912 -16.2396
ltibia 29.5545
lfoot -11.1533 9.78431
ltoes -10.3823
305
root 9.33592 17.3702 29.5331 6.0382 -4.62026 -5.98185
lowerback -5.41184 1.94976 3.31544
upperback -0.907229 2.32059 3.60773
thorax 2.08046 1.16987 2.02369
lowerneck -22.8879 -2.71409 -11.5805
upperneck 28.3241 -2.6063 9.6399
head 13.719 -1.05808 5.39116
rclavicle 1.62506e-014 2.3059e-014
rhumerus -25.3281 24.3527 -84.8442
rradius 45.5221
rwrist -23.5597
rhand -31.5646 -28.914
rfingers 7.12502
rthumb -4.82833 -58.839
lclavicle 1.62506e-014 2.3059e-014
lhumerus -44.009 15.8564 72.7076
lradius 10.5277
lwrist -32.5367
lhand -10.1373 -22.4554
lfingers 7.12502
lthumb 15.8514 6.91575
rfemur 2.03719 -1.99002 32.1797
rtibia 15.4451
rfoot -11.2814 11.1692
rtoes -11.3206
lfemur -37.6607 7.89197 -16.4225
ltibia 26.0191
lfoot -11.6948 9.51192
ltoes -9.80116
306
root 9.35563 17.3585 29.7236 6.13427 -5.24488 -5.97526
lowerback -5.53084 2.05611 3.41597
upperback -0.74824 2.44269 3.52708
thorax 2.31762 1.23338 1.90269
lowerneck -23.1144 -2.43333 -11.0669
upperneck 28.176 -2.29505 9.4303
head 13.6482 -0.88681 5.26433
rclavicle 4.82177e-014 -1.59028e-015
rhumerus -24.1695 25.0001 -84.5968
rradius 46.2341
rwrist -24.3087
rhand -32.2009 -26.9909
rfingers 7.12502
rthumb -5.44273 -56.901
lclavicle 4.82177e-014 -1.59028e-015
lhumerus -44.6058 16.0096 72.3262
lradius 9.60809
lwrist -32.313
lhand -10.7816 -21.9755
lfingers 7.12502
lthumb 15.2309 7.44381
rfemur 2.83571 -1.8512 31.8006
rtibia 15.0714
rfoot -10.9936 11.9805
rtoes -10.6935
lfemur -37.3291 6.8055 -15.8472
ltibia 22.6656
lfoot -12.6626 10.1888
ltoes -11.7176
307
root 9.37758 17.3474 29.9194 6.46844 -5.52833 -6.05881
lowerback -5.66331 2.10667 3.61937
upperback -0.950831 2.49939 3.50842
thorax 2.1916 1.26121 1.77429
lowerneck -22.8151 -2.21053 -10.6089
upperneck 28.1185 -1.99389 8.86188
head 13.5079 -0.786571 4.99444
rclavicle 2.40902e-014 3.69739e-014
rhumerus -23.6964 25.6083 -84.4719
rradius 47.0675
rwrist -24.9855
rhand -32.4359 -25.6363
rfingers 7.12502
rthumb -5.66956 -55.5405
lclavicle 2.40902e-014 3.69739e-014
lhumerus -45.6837 15.8515 71.8746
lradius 8.84891
lwrist -31.7594
lhand -10.6499 -21.3731
lfingers 7.12502
lthumb 15.3577 8.03656
rfemur 3.41468 -1.93139 31.5207
rtibia 14.5348
rfoot -10.4423 12.7461
rtoes -8.93924
lfemur -37.4128 4.96981 -14.8613
ltibia 19.7906
lfoot -12.9054 11.2531
ltoes -11.1957
308
root 9.39712 17.333 30.1224 6.53501 -5.78424 -5.92133
lowerback -5.91303 2.19381 3.6663
upperback -0.846361 2.59263 3.45317
thorax 2.44345 1.31024 1.71244
lowerneck -22.7036 -2.26553 -10.8024
upperneck 27.867 -1.96009 8.74213
head 13.3769 -0.806271 4.97003
rclavicle -1.15668e-014 1.94809e-014
rhumerus -23.0174 25.8877 -84.0266
rradius 48.0623
rwrist -25.2742
rhand -32.6744 -27.2626
rfingers 7.12502
rthumb -5.89984 -57.1605
lclavicle -1.15668e-014 1.94809e-014
lhumerus -46.3705 15.6626 71.6869
lradius 8.23443
lwrist -31.1322
lhand -10.0542 -20.3021
lfingers 7.12502
lthumb 15.9314 9.06269
rfemur 4.53296 -2.52633 30.9244
rtibia 13.5564
rfoot -9.63054 13.8105
rtoes -8.17181
lfemur -37.5586 1.86934 -13.3019
ltibia 17.7443
lfoot -13.0103 13.4037
ltoes -7.90598
309
root 9.41629 17.3219 30.3231 6.47481 -6.01905 -6.27862
lowerback -5.71515 2.32409 4.18893
upperback -0.900513 2.74549 3.56205
thorax 2.29579 1.38833 1.53607
lowerneck -22.3646 -2.24769 -11.0781
upperneck 27.6795 -1.89356 8.85117
head 13.2243 -0.793249 5.05949
rclavicle 5.92627e-015 1.15295e-014
rhumerus -22.8316 25.722 -83.6701
rradius 49.0921
rwrist -24.9564
rhand -32.4525 -27.5153
rfingers 7.12502
rthumb -5.68559 -57.419
lclavicle 5.92627e-015 1.15295e-014
lhumerus -47.3739 15.3475 71.5261
lradius 7.72555
lwrist -30.6732
lhand -9.70189 -19.5517
lfingers 7.12502
lthumb 16.2707 9.78564
rfemur 5.94699 -3.13447 30.8531
rtibia 12.4421
rfoot -8.82594 14.7237
rtoes -8.68902
lfemur -37.7563 2.10245 -12.9084
ltibia 16.2678
lfoot -12.8696 12.0799
ltoes -5.85495
310
root 9.43605 17.306 30.5124 6.80182 -6.07733 -7.04449
lowerback -5.02689 2.37197 5.01435
upperback -1.66707 2.85366 3.76485
thorax 1.14918 1.42486 1.24066
lowerneck -21.4807 -1.88973 -10.7997
upperneck 27.9104 -1.52424 8.64778
head 13.082 -0.645709 4.98936
rclavicle -3.09918e-014 -9.93923e-015
rhumerus -23.5907 25.7649 -83.8428
rradius 49.9692
rwrist -24.6984
rhand -32.2841 -26.5812
rfingers 7.12502
rthumb -5.52307 -56.4892
lclavicle -3.09918e-014 -9.93923e-015
lhumerus -49.3881 14.7959 71.009
lradius 7.26855
lwrist -30.5697
lhand -9.65263 -19.4019
lfingers 7.12502
lthumb 16.3181 9.93157
rfemur 6.80717 -3.29609 31.3602
rtibia 11.4447
rfoot -7.81628 15.2024
rtoes -8.26788
lfemur -38.3017 2.25509 -12.1668
ltibia 14.9535
lfoot -12.4778 11.7648
ltoes -5.91692
311
root 9.45562 17.273 30.7046 7.1552 -6.43932 -7.08842
lowerback -7.03146 2.57412 5.24178
upperback -0.21537 2.85822 3.6681
thorax 3.79167 1.47702 1.1605
lowerneck -23.2615 -2.28294 -11.0092
upperneck 27.2979 -1.87735 8.93831
head 13.2499 -0.744687 5.07986
rclavicle -4.78326e-014 -5.56597e-015
rhumerus -20.0664 25.6512 -82.3405
rradius 50.3906
rwrist -24.8084
rhand -32.1707 -26.7413
rfingers 7.12502
rthumb -5.41357 -56.6521
lclavicle -4.78326e-014 -5.56597e-015
lhumerus -47.4825 15.4239 71.408
lradius 6.36778
lwrist -30.4611
lhand -9.30865 -18.9212
lfingers 7.12502
lthumb 16.6493 10.3847
rfemur 8.16131 -2.84133 31.1245
rtibia 9.36444
rfoot -6.1489 15.2579
rtoes -7.48384
lfemur -39.3478 2.52737 -12.3142
ltibia 14.8812
lfoot -12.3487 12.5734
ltoes -10.6823
312
root 9.47414 17.217 30.9093 7.2919 -6.82577 -7.05111
lowerback -8.75878 2.70322 5.21744
upperback 1.10133 2.81074 3.68922
thorax 6.1484 1.48976 1.33568
lowerneck -24.5335 -2.43526 -10.8692
upperneck 26.7819 -1.8255 8.45084
head 13.2861 -0.744583 4.85851
rclavicle -3.33958e-014 9.14409e-015
rhumerus -17.0716 26.0489 -80.9922
rradius 50.8348
rwrist -25.3199
rhand -32.5036 -26.4495
rfingers 7.12502
rthumb -5.73492 -56.3519
lclavicle -3.33958e-014 9.14409e-015
lhumerus -45.9635 16.1517 71.8473
lradius 5.49922
lwrist -30.2175
lhand -8.98175 -18.3537
lfingers 7.12502
lthumb 16.964 10.9255
rfemur 10.3828 -2.39503 30.7794
rtibia 6.42269
rfoot -4.40287 15.0677
rtoes -7.10381
lfemur -40.4373 2.78458 -12.5431
ltibia 15.4709
lfoot -12.1931 14.1584
ltoes -19.3207
313
root 9.48252 17.2294 31.1022 7.54339 -6.81022 -7.86337
lowerback -7.75528 2.73454 6.00638
upperback 0.175021 2.90748 3.86333
thorax 4.63818 1.52896 0.999987
lowerneck -23.5828 -2.5731 -11.4855
upperneck 26.8433 -2.14687 9.23435
head 13.1743 -0.859095 5.21756
rclavicle 1.61513e-014 2.98177e-014
rhumerus -18.4405 26.803 -81.6874
rradius 51.464
rwrist -25.9968
rhand -33.7352 -23.9577
rfingers 7.12502
rthumb -6.92399 -53.8244
lclavicle 1.61513e-014 2.98177e-014
lhumerus -48.0684 15.4679 71.1648
lradius 4.98339
lwrist -30.1536
lhand -9.50662 -18.2759
lfingers 7.12502
lthumb 16.4587 11.0459
rfemur 13.2483 -2.24418 31.4706
rtibia 1.68157
rfoot -1.75856 14.4075
rtoes -6.59501
lfemur -40.7976 2.8247 -11.9019
ltibia 16.0907
lfoot -13.4487 15.1859
ltoes -23.8274
314
root 9.50162 17.2447 31.3372 7.1828 -7.21121 -7.20869
lowerback -6.41367 2.79838 5.53024
upperback -0.846592 3.22899 3.50242
thorax 2.82194 1.64584 0.811085
lowerneck -22.2937 -2.32753 -11.0767
upperneck 27.2854 -2.09276 9.13369
head 13.0751 -0.835679 5.1189
rclavicle -3.30976e-014 -7.15625e-015
rhumerus -20.6282 26.6529 -82.8331
rradius 52.3662
rwrist -26.1832
rhand -34.1024 -22.7888
rfingers 7.12502
rthumb -7.27844 -52.6436
lclavicle -3.30976e-014 -7.15625e-015
lhumerus -50.5175 14.391 70.2935
lradius 4.59363
lwrist -29.8659
lhand -9.67022 -17.9932
lfingers 7.12502
lthumb 16.3012 11.3416
rfemur 15.2219 -1.91658 30.4318
rtibia 1.59028e-014
rfoot -0.759142 14.2789
rtoes -7.98154
lfemur -40.1066 2.79639 -12.9504
ltibia 16.7323
lfoot -13.896 14.5032
ltoes -18.4649
